<svg width="59" height="30" viewBox="0 0 59 30" fill="none" xmlns="http://www.w3.org/2000/svg">
<path d="M0.432878 12.183H2.06658C2.46522 12.183 2.81937 12.2613 3.12903 12.4179C3.43868 12.571 3.67894 12.7898 3.84978 13.0746C4.02063 13.3558 4.10605 13.6814 4.10605 14.0516C4.10605 14.4218 4.02063 14.7492 3.84978 15.034C3.67894 15.3152 3.43868 15.534 3.12903 15.6907C2.81937 15.8437 2.46522 15.9202 2.06658 15.9202H0.432878V12.183ZM2.03455 15.3329C2.30862 15.3329 2.54887 15.2813 2.7553 15.1781C2.9653 15.0713 3.12547 14.9219 3.23581 14.7297C3.3497 14.5339 3.40665 14.3079 3.40665 14.0516C3.40665 13.7953 3.3497 13.5711 3.23581 13.3789C3.12547 13.1831 2.9653 13.0337 2.7553 12.9304C2.54887 12.8237 2.30862 12.7703 2.03455 12.7703H1.12694V15.3329H2.03455ZM8.17647 15.0553H6.30785L5.93946 15.9202H5.22405L6.90581 12.183H7.58919L9.27628 15.9202H8.55019L8.17647 15.0553ZM7.94689 14.5108L7.24216 12.877L6.54276 14.5108H7.94689ZM15.9762 12.183L14.7375 15.9202H14.0008L13.0771 13.1547L12.1375 15.9202H11.3954L10.1567 12.183H10.8775L11.8065 15.0233L12.7728 12.183H13.4135L14.3585 15.0393L15.3141 12.183H15.9762ZM17.5026 12.183H18.1966V15.9202H17.5026V12.183ZM20.1685 12.183H21.8022C22.2008 12.183 22.555 12.2613 22.8646 12.4179C23.1743 12.571 23.4145 12.7898 23.5854 13.0746C23.7562 13.3558 23.8417 13.6814 23.8417 14.0516C23.8417 14.4218 23.7562 14.7492 23.5854 15.034C23.4145 15.3152 23.1743 15.534 22.8646 15.6907C22.555 15.8437 22.2008 15.9202 21.8022 15.9202H20.1685V12.183ZM21.7702 15.3329C22.0442 15.3329 22.2845 15.2813 22.4909 15.1781C22.7009 15.0713 22.8611 14.9219 22.9714 14.7297C23.0853 14.5339 23.1423 14.3079 23.1423 14.0516C23.1423 13.7953 23.0853 13.5711 22.9714 13.3789C22.8611 13.1831 22.7009 13.0337 22.4909 12.9304C22.2845 12.8237 22.0442 12.7703 21.7702 12.7703H20.8625V15.3329H21.7702ZM38.3116 12.183L37.0729 15.9202H36.3362L35.4125 13.1547L34.4729 15.9202H33.7308L32.4922 12.183H33.2129L34.1419 15.0233L35.1082 12.183H35.7489L36.6939 15.0393L37.6495 12.183H38.3116ZM39.838 12.183H40.5321V15.9202H39.838V12.183ZM43.0858 15.9736C42.8474 15.9736 42.6267 15.9273 42.4238 15.8348C42.2245 15.7387 42.0608 15.6052 41.9326 15.4344L42.3277 14.9592C42.5342 15.244 42.7815 15.3863 43.0698 15.3863C43.4578 15.3863 43.6518 15.1568 43.6518 14.6976V12.7649H42.3224V12.183H44.3458V14.6602C44.3458 15.098 44.239 15.4273 44.0255 15.6479C43.8119 15.8651 43.4987 15.9736 43.0858 15.9736ZM48.626 15.0553H46.7574L46.389 15.9202H45.6736L47.3553 12.183H48.0387L49.7258 15.9202H48.9997L48.626 15.0553ZM48.3964 14.5108L47.6917 12.877L46.9923 14.5108H48.3964ZM51.7325 12.7703H50.4939V12.183H53.6652V12.7703H52.4266V15.9202H51.7325V12.7703ZM57.3833 15.0553H55.5147L55.1463 15.9202H54.4309L56.1126 12.183H56.796L58.4831 15.9202H57.757L57.3833 15.0553ZM57.1537 14.5108L56.449 12.877L55.7496 14.5108H57.1537Z" fill="#E5E5E5"/>
<mask id="mask0_1_87" style="mask-type:alpha" maskUnits="userSpaceOnUse" x="0" y="-15" width="60" height="60">
<rect y="16.6225" width="59.1176" height="27.8775" fill="#C4C4C4"/>
<rect y="-14.5" width="59.1176" height="25.37" fill="#C4C4C4"/>
</mask>
<g mask="url(#mask0_1_87)">
<path d="M23.6456 15.6509C23.6456 17.9943 23.2811 20.0382 22.5521 21.7827C21.823 23.5012 20.7946 24.9332 19.4666 26.0789C18.1387 27.1985 16.5505 28.0447 14.7018 28.6175C12.8532 29.1643 10.8222 29.4377 8.60907 29.4377C7.51551 29.4377 6.30477 29.3856 4.97687 29.2815C3.675 29.2034 2.4903 29.0341 1.42277 28.7738V2.52811C2.4903 2.26774 3.675 2.0985 4.97687 2.02038C6.30477 1.91623 7.51551 1.86416 8.60907 1.86416C10.8222 1.86416 12.8532 2.15057 14.7018 2.72339C16.5505 3.27018 18.1387 4.11639 19.4666 5.26203C20.7946 6.38164 21.823 7.81369 22.5521 9.55819C23.2811 11.2767 23.6456 13.3076 23.6456 15.6509ZM8.92152 26.1179C12.5147 26.1179 15.1965 25.2066 16.9671 23.384C18.7376 21.5354 19.6229 18.9577 19.6229 15.6509C19.6229 12.3442 18.7376 9.77951 16.9671 7.9569C15.1965 6.10825 12.5147 5.18392 8.92152 5.18392C7.85399 5.18392 7.0208 5.19694 6.42194 5.22298C5.84912 5.24901 5.44554 5.27505 5.2112 5.30109V26.0008C5.44554 26.0268 5.84912 26.0529 6.42194 26.0789C7.0208 26.1049 7.85399 26.1179 8.92152 26.1179ZM41.4665 10.847C40.3729 14.336 39.2663 17.5647 38.1467 20.5329C37.0271 23.5012 35.9075 26.3913 34.7879 29.2034H30.9995C29.6195 25.2197 28.3957 21.0146 27.3282 16.5883C26.2867 12.1619 25.3103 7.34502 24.399 2.13755H28.3827C28.7472 4.16847 29.1248 6.19938 29.5153 8.23029C29.9059 10.2612 30.3095 12.24 30.7261 14.1668C31.1427 16.0675 31.5593 17.8901 31.9759 19.6346C32.3925 21.3791 32.8221 22.9935 33.2647 24.4776C34.3062 21.7437 35.4128 18.7494 36.5845 15.4947C37.7561 12.214 38.8497 8.82915 39.8652 5.34015H43.1459C44.1613 8.82915 45.2679 12.214 46.4656 15.4947C47.6634 18.7494 48.783 21.7437 49.8245 24.4776C50.2411 23.0195 50.6577 21.4182 51.0742 19.6737C51.4908 17.9292 51.8944 16.1066 52.285 14.2059C52.7016 12.2791 53.1052 10.3003 53.4957 8.26935C53.8863 6.2124 54.2638 4.16847 54.6283 2.13755H58.4949C57.5575 7.34502 56.5551 12.1619 55.4876 16.5883C54.4461 21.0146 53.2484 25.2197 51.8944 29.2034H48.106C46.9603 26.3913 45.8407 23.5012 44.7472 20.5329C43.6536 17.5647 42.56 14.336 41.4665 10.847Z" fill="white"/>
</g>
</svg>
